<svg xmlns="http://www.w3.org/2000/svg" viewBox="0 0 195 24">
    <g fill="none" fill-rule="evenodd">
        <path fill="#C6382D"
              d="M22.407 5.515c-.711-1.067-1.244-1.778-2.133-2.49 0 1.245-.533 2.668-1.067 3.735.534.711.89.89 1.245 1.778 0 .178.177.178.177.356.356.712.534 1.6.534 2.312.355 3.023-.89 6.047-3.2 7.825-.178-.356-.533-.533-.711-.89-1.6-2.133-2.489-6.046-1.067-8.713.178-.356.356-.534.534-.89.533-.71.888-1.422 1.244-2.311.178-.178.178-.356.178-.712.355-1.067.533-2.134.71-3.201v-.356C14.764-.709 9.253-.709 4.987 2.314 3.208 3.559 1.964 5.337 1.075 7.116.719 8.183.186 8.894.008 9.783 1.075 9.25 3.03 8.716 3.92 8.716c.178-.889.356-1.067.89-1.778.532-.89 1.243-1.6 1.955-2.134 2.488-1.779 5.688-2.134 8.355-1.245-.178.356-.178.711-.356 1.067-1.244 2.668-4.622 5.513-7.644 5.335-.889-.178-1.955-.178-3.022 0-1.244.178-2.667.534-3.733 1.067-.178 0-.178.178-.356.178-.177 4.98 2.49 9.781 7.289 11.738 3.022 1.245 5.866 1.422 8.888.355-1.066-.711-1.955-1.6-2.666-2.49-1.778.356-3.2 0-4.978-.71-2.844-1.246-4.8-3.735-5.155-6.58.355-.179.711-.179 1.067-.179 2.844-.355 7.11 1.067 8.355 3.913.355.889.888 1.778 1.422 2.667.533.712.178.356.71.89.534.71 1.245 1.244 2.134 1.778.178 0 .178.178.356.178 4.444-2.312 7.11-7.114 6.577-12.271.178-1.6-.533-3.38-1.6-4.98zm-14.044 4.98c-.355 0-.533-.178-.888-.178.177.178.533.178.888.178z"/>
        <path fill="#202020"
              d="M57.758 3.187h13.11v2.972h-4.894v13.99h-3.322V6.159h-4.894m-4.02-2.098c.175-.35.524-.525.874-.7.35-.174.7-.174 1.049-.174.35 0 .699.175 1.049.35.174.35.35.699.35 1.049v15.563h-3.322V8.782L45.523 20.15h-4.02L53.738 4.06zm25.17 0c.175-.35.525-.525.874-.7.35-.174.7-.174 1.049-.174.35 0 .7.175 1.049.35.175.35.35.699.35 1.049v15.563h-3.322V8.782L70.693 20.15h-4.02L78.908 4.06zM32.763 20.149c-.35 0-.7-.175-1.049-.35-.175-.35-.35-.7-.35-1.05V3.188h3.322l-.175 13.64h6.292l.175 3.322h-5.943m48.593-.7l11.71-15.564c.176-.35.525-.524.875-.7.35-.174.699-.174 1.049-.174s.699.175 1.048.35c.175.35.35.699.35 1.049v10.317l8.215-10.842c.175-.35.525-.524.874-.7.35-.174.7-.174 1.049-.174.35 0 .699.175 1.049.35.174.35.35.699.35 1.049v15.563h-3.322V8.608L99.36 18.925c-.35.35-.524.7-.874.874-.35.175-.7.175-1.049.175-.524 0-1.048-.175-1.573-.525-.524-.35-.699-.874-.699-1.399V8.608L86.95 19.974h-4.021"/>
        <path fill="#C6382D"
              d="M142.882 7.908c0-.7.175-1.224.35-1.749.35-.524.7-1.049 1.224-1.399.524-.35 1.223-.699 1.922-1.049.7-.175 1.573-.35 2.447-.35h14.683v2.973h-4.894v13.99h-3.321V6.334h-7.167c-.699 0-1.223.175-1.748.525-.35.35-.699.7-.699 1.224m-21.674-4.022c.175-.35.524-.525.874-.7.35-.174.699-.174 1.049-.174s.699.175 1.048.35c.175.35.35.699.35 1.049v15.563h-3.321V8.782L115.79 20.15h-4.02l12.234-16.09z"/>
        <path fill="#C6382D"
              d="M145.68 10.356c0 1.4-.176 2.798-.7 3.847-.524 1.224-1.049 2.273-1.748 3.148-.7.874-1.748 1.574-2.797 1.923-1.048.525-2.097.7-3.32.7-1.224 0-2.273-.175-3.322-.7-1.048-.524-1.922-1.049-2.622-1.923-.699-.875-1.223-1.924-1.748-3.148-.35-1.224-.524-2.448-.524-4.022v-7.17h2.972v7.17c0 .875.174 1.749.35 2.623.349.875.698 1.4 1.223 2.099.524.524 1.048 1.049 1.748 1.399.699.35 1.398.524 2.272.524.874 0 1.573-.175 2.272-.524.7-.35 1.224-.7 1.748-1.4.525-.524.874-1.223 1.049-2.098.35-.7.35-1.573.35-2.623V7.733l2.971-.874v3.497h-.175zm47.892-4.196h-6.642c-.699 0-1.223.174-1.748.524-.35.35-.699.7-.699 1.224 0 .525.175.874.7 1.224.349.35 1.048.525 1.747.525h1.923c.874 0 1.573.175 2.447.35.7.174 1.399.524 1.923 1.049.524.524.874 1.049 1.223 1.573.35.7.525 1.4.525 2.099 0 .7-.175 1.399-.525 2.098-.35.7-.699 1.224-1.398 1.574-.524.525-1.223.874-2.097 1.05-.874.174-1.748.349-2.622.349h-6.817v-2.973h6.817c1.048 0 1.922-.175 2.622-.7.699-.524 1.048-1.048 1.048-1.748s-.35-1.224-1.048-1.749c-.7-.524-1.574-.699-2.622-.699h-1.573c-.874 0-1.574-.175-2.273-.35-.699-.175-1.223-.524-1.748-.874-.524-.35-.874-.874-1.223-1.399-.35-.525-.35-1.224-.35-1.924 0-.699.175-1.224.35-1.748.35-.525.699-1.05 1.223-1.4.525-.349 1.224-.699 1.923-1.048.7-.175 1.573-.35 2.447-.35h6.467m-21.499.35c-5.07 0-9.09 3.847-9.09 8.568s4.02 8.569 9.09 8.569c5.069 0 9.09-3.848 9.09-8.569 0-4.721-4.021-8.568-9.09-8.568zm0 13.814c-3.146 0-5.768-2.448-5.768-5.42 0-2.973 2.622-5.422 5.768-5.422s5.768 2.449 5.768 5.421c0 2.973-2.622 5.421-5.768 5.421z"/>
    </g>
</svg>
