<svg xmlns="http://www.w3.org/2000/svg" version="1.1" id="Layer_1" x="0" y="0" viewBox="0 0 540.9 75"
     xml:space="preserve"><style>.st0{fill:#FFFFFF}</style>
    <path class="st0"
          d="M37.2 72.4c-15.5 0-29.2-10.1-33.8-25-.2-.7-.4-1.4-.6-2.2-.7-2.7-1-5.4-1-8.2v-.2H2c.3-.1 6.4-3 9.7-3.8 2.5-.6 5-.9 7.6-.9h.7c3.9 0 7.7-1 11.1-2.7.9-.5 1.8-1 2.7-1.6 3-2 5.6-4.7 7.5-7.8l.3-.5.2-.4.3-.5c1-1.9 1.8-3.9 2.3-6.1-1.7-.5-3.4-.8-5.1-.9-.8-.1-1.5-.1-2.1-.1-6.5 0-12.7 2.5-17.4 6.9-2.3 2.2-4.2 4.7-5.5 7.6l-.1.1h-.1c-3 .4-5.9 1.1-8.7 2.1-.8.3-1.6.6-2.2.9l-.5.2.1-.5c.2-.8.4-1.5.6-2.1C8.9 9 27.1-1.6 45.2 2.6c.8.2 1.6.4 2.3.6 2.6.8 5.1 1.9 7.4 3.2.1.1.2.1-.3 4.1-.2 2.2-.6 4.3-1.2 6.4-.8 2.5-1.8 4.9-3.1 7.1l-.1.2-.1.2c-1.9 3.3-3 7-3.2 10.8 0 .6-.1 1.2-.1 1.7s0 1.1.1 1.7c.3 3.9 1.4 7.6 3.3 11 1.2 2.1 2.7 4 4.5 5.7 9-8.6 10.5-22.4 3.5-32.8l-.1-.1v-.1c1.1-2.8 2-5.6 2.5-8.6.1-.8.2-1.5.3-2.4l.1-.5.4.4c.5.5 1.1 1 1.6 1.6C75.7 26.4 75.7 47.4 63 61l-1.6 1.6c-2 1.9-4.2 3.6-6.6 5h-.2c-3-1.9-5.8-4.1-8.3-6.6-1.6-1.8-3.1-3.7-4.3-5.7l-.1-.3-.2-.4-.3-.5c-1.9-3.1-4.5-5.7-7.5-7.8C29.8 43.6 25 42.1 20 42h-.7c-2.3 0-4.6.4-6.9 1 .4 1.8 1 3.5 1.8 5.1 4.2 8.8 13.1 14.4 22.9 14.4.6 0 1.3 0 2.1-.1h.1l.1.1c1.8 2.3 3.8 4.4 6 6.3.7.6 1.4 1.1 2.1 1.7l.4.3-.5.1c-.7.2-1.5.4-2.3.6-2.5.6-5.2.9-7.9.9zM109.5 68c-3.3 0-6.5-.3-9.7-1.1-2.8-.7-5.4-1.9-7.8-3.5-2.2-1.5-4-3.4-5.2-5.7-1.3-2.5-2-5.3-2-8.1h16.1c.1 1.9 1.1 3.7 2.7 4.8 1.9 1.1 4.1 1.6 6.3 1.5.8 0 1.6-.1 2.4-.2.8-.1 1.5-.4 2.2-.8.6-.3 1.2-.8 1.6-1.4.4-.6.7-1.3.6-2.1 0-.7-.2-1.4-.7-2-.5-.6-1.2-1.1-2-1.4-1-.5-2.1-.8-3.2-1.1-1.3-.3-2.7-.7-4.4-1.1-2.2-.5-4.5-1.2-6.9-2-2.3-.7-4.4-1.7-6.4-3-1.9-1.2-3.5-2.8-4.7-4.7-1.3-2.2-1.9-4.6-1.7-7.1-.1-2.7.5-5.4 1.8-7.8 1.1-2.1 2.8-3.9 4.8-5.3 2.1-1.4 4.5-2.4 7.1-3 2.8-.6 5.7-1 8.6-.9 2.7 0 5.4.3 8 .9 2.4.5 4.8 1.5 6.9 2.9 2 1.3 3.6 3.1 4.8 5.1 1.3 2.3 1.9 4.9 1.9 7.5h-15.5c-.2-1.4-.9-2.6-2-3.5-1.4-1-3.1-1.4-4.8-1.3-1.5-.1-3 .3-4.2 1-1 .5-1.6 1.6-1.6 2.7 0 .8.3 1.5.8 2 .7.6 1.5 1 2.4 1.3 1.3.4 2.6.8 4 1 1.6.3 3.4.7 5.4 1.2 2.2.5 4.4 1.2 6.6 2 2.1.7 4 1.8 5.7 3.1 1.7 1.3 3.1 2.9 4.1 4.8 1.1 2.2 1.6 4.7 1.6 7.2.1 2.7-.6 5.4-1.8 7.8-1.2 2.2-2.9 4.1-5 5.6-2.2 1.6-4.7 2.7-7.3 3.4-3.4.9-6.4 1.3-9.5 1.3zM156 67.7c-2.9 0-5.8-.5-8.6-1.5-2.5-.9-4.7-2.4-6.6-4.2-1.9-1.8-3.3-4-4.3-6.4-1-2.6-1.5-5.4-1.5-8.1 0-2.8.5-5.5 1.5-8.1 1-2.4 2.4-4.6 4.2-6.5 1.8-1.9 4-3.3 6.5-4.3 5.2-2 11-2.1 16.2-.1 2.3.9 4.3 2.2 6.1 3.8 2.4 2.2 4.2 5 5.2 8.1 1.1 3.4 1.6 7 1.5 10.6H149c.3 2 1.1 3.8 2.4 5.3 1.4 1.3 3.2 2 5.1 1.9 2.2.2 4.3-.9 5.3-2.9h13.7c-.5 1.8-1.3 3.5-2.5 5-1.3 1.7-3 3.1-4.8 4.2-1.7 1.1-3.6 2-5.6 2.5-2.1.5-4.4.8-6.6.7zm-.2-31.1c-1.7-.1-3.4.6-4.6 1.8-1.2 1.4-2 3.2-2.3 5h13.2c-.2-1.8-.9-3.6-2.1-5-1.1-1.1-2.6-1.8-4.2-1.8zM179.8 28.4h13.5v5.7h.2c1.2-2.1 2.9-3.8 4.9-5.1 2.2-1.3 4.7-1.9 7.2-1.8 2.3-.1 4.6.6 6.6 1.8 1.9 1.2 3.4 2.9 4.3 4.9h.2c1.3-2.3 3.3-4.1 5.6-5.3 2.2-1 4.5-1.5 6.9-1.4 2.1-.1 4.2.3 6.1 1.2 1.6.7 3.1 1.8 4.2 3.2 1.1 1.5 1.9 3.1 2.4 4.9.5 2 .8 4.1.8 6.1v24h-14.2V45.2c.1-1.6-.3-3.3-1.1-4.7-.8-1.2-2.3-1.9-3.8-1.8-1.6-.1-3.1.7-4 2.1-.9 1.6-1.4 3.4-1.3 5.2v20.7h-14.2V45.2c.1-1.6-.3-3.3-1.1-4.7-.8-1.2-2.3-1.9-3.8-1.8-1.6-.1-3.1.7-4 2.1-.9 1.6-1.4 3.4-1.3 5.2v20.7h-14.2V28.4zM247.6 13h14.2v10.7h-14.2V13zm0 15.4h14.2v38.3h-14.2V28.4zM275.9 13h15.7l17.6 30.2h.1V13h15.2v53.7h-16.2l-17-30.4h-.1v30.4H276V13zM355.8 66.7v-5h-.2c-1.3 1.9-3.1 3.5-5.1 4.6-2.1 1.1-4.5 1.6-6.9 1.6-2.1 0-4.1-.3-6-1.1-1.6-.7-3.1-1.7-4.2-3-1.2-1.4-2-2.9-2.5-4.7-.6-1.9-.9-4-.9-6V28.4h14.2v21.3c0 4 1.7 6.1 5.1 6.1 1.6.1 3.2-.6 4.3-1.8 1.1-1.4 1.6-3.2 1.5-5V28.4h14.2v38.3h-13.5zM393.8 67.7c-2.9 0-5.8-.5-8.6-1.5-2.5-.9-4.7-2.4-6.6-4.2-1.9-1.8-3.3-4-4.3-6.4-2-5.2-2-11 0-16.2 1-2.4 2.4-4.6 4.2-6.5 1.8-1.9 4-3.3 6.5-4.3 5.2-2 11-2.1 16.2-.1 2.3.9 4.3 2.2 6.1 3.8 2.4 2.2 4.2 5 5.2 8.1 1.1 3.4 1.6 7 1.5 10.6h-27.3c.3 2 1.1 3.8 2.4 5.3 1.4 1.3 3.2 2 5.1 1.9 2.2.2 4.3-.9 5.3-2.9h13.7c-.5 1.8-1.3 3.5-2.5 5-1.3 1.7-2.9 3.1-4.8 4.2-1.7 1.1-3.6 2-5.6 2.5-2.1.5-4.3.8-6.5.7zm-.3-31.1c-1.7-.1-3.4.6-4.5 1.8-1.2 1.4-2 3.2-2.3 5H400c-.2-1.8-.9-3.6-2.1-5-1.2-1.1-2.7-1.8-4.4-1.8zM413 28.4h14.7l4.4 14.7c.2 1 .5 2 .8 3.1l.8 3c.2 1 .5 2.1.8 3.2h.1c.2-1 .5-2.1.8-3.2l.8-3c.3-1.1.6-2.1.9-3.1l4.4-14.7h14.3l-13.2 38.3H426l-13-38.3zM475.8 67.9c-3 0-5.9-.5-8.7-1.5-2.5-1-4.7-2.4-6.6-4.2-1.8-1.8-3.3-4-4.2-6.4-2-5.2-2-11 0-16.1 2-4.9 5.9-8.8 10.8-10.7 5.6-2.1 11.7-2.1 17.3 0 4.9 1.9 8.8 5.8 10.7 10.7 2 5.2 2 10.9 0 16.2-.9 2.4-2.3 4.6-4.2 6.4-1.9 1.9-4.1 3.3-6.6 4.2-2.6.9-5.5 1.4-8.5 1.4zm-.1-9.5c2.1.1 4-1.1 5-3 1.2-2.4 1.8-5.1 1.6-7.8.1-2.7-.4-5.4-1.6-7.8-.9-1.9-2.9-3.1-5-3-2.1-.1-4 1.1-4.9 3-1.2 2.4-1.7 5.1-1.6 7.8-.1 2.7.4 5.4 1.6 7.8.9 1.9 2.8 3.1 4.9 3zM517.3 68c-2.6 0-5.3-.3-7.8-.9-2.2-.5-4.2-1.4-6.1-2.6-1.7-1.1-3-2.6-4-4.3-1-1.8-1.4-3.8-1.4-5.9h13.6c0 1.4.6 2.7 1.6 3.7 1.2.9 2.7 1.4 4.2 1.3 1.2 0 2.4-.2 3.5-.8.9-.5 1.5-1.5 1.4-2.5 0-.7-.3-1.4-.8-1.9-.6-.5-1.3-.9-2.1-1.1-1-.3-2-.5-3-.7l-3.6-.6c-1.6-.2-3.2-.6-4.9-1-1.6-.4-3.1-1-4.5-1.9-1.4-.9-2.5-2.1-3.3-3.6-.9-1.8-1.4-3.8-1.3-5.9 0-1.8.4-3.6 1.4-5.2 1-1.6 2.3-2.9 3.8-3.9 1.7-1.1 3.6-1.9 5.6-2.3 2.2-.5 4.4-.8 6.7-.8 5.8 0 10.3 1 13.3 3.1 3 2 4.8 5.2 4.9 8.8h-13.4c0-1.2-.7-2.2-1.7-2.8-1-.4-2-.7-3.1-.6-1 0-1.9.2-2.8.6-.8.4-1.3 1.2-1.2 2.1 0 .5.2 1 .6 1.3.5.4 1.1.7 1.7.9.8.3 1.7.4 2.5.6 1 .2 2 .3 3.1.5 1.8.2 3.6.6 5.4 1 1.8.4 3.5 1.1 5.1 2 1.6 1 2.9 2.3 3.8 3.8 1.1 2 1.6 4.2 1.5 6.4.1 2.1-.4 4.1-1.5 5.9-1 1.7-2.4 3.1-4 4.1-1.8 1.1-3.9 1.9-6 2.4-2.3.6-4.8.8-7.2.8z"/></svg>
